<svg width="212.8849853515625px" height="171.2px" xmlns="http://www.w3.org/2000/svg" viewBox="143.55750732421876 -10.599999999999994 212.8849853515625 171.2" style="background: rgb(29, 63, 114);" preserveAspectRatio="xMidYMid"><defs><linearGradient id="editing-outline-gradient" x1="-0.41354545764260087" x2="1.4135454576426008" y1="0.09326335692419985" y2="0.9067366430758002"><stop offset="0" stop-color="#5699d2"></stop><stop offset="1" stop-color="#d8ebf9"></stop></linearGradient><filter id="editing-outline" x="-100%" y="-100%" width="300%" height="300%"><feMorphology in="SourceGraphic" operator="dilate" radius="2" result="outline"></feMorphology><feComposite operator="out" in="outline" in2="SourceAlpha"></feComposite></filter></defs><g filter="url(#editing-outline)"><g transform="translate(180.31082367897034, 108.24999809265137)"><path d="M9.69 0L-1.24 0L15.96-62.70L35.81-62.70L40.19-26.89L57.86-62.70L74.48-62.70L76.19-15.77L76.19-15.77Q76.57-6.46 81.13-3.61L81.13-3.61L81.13-3.61Q80.09-1.71 77.05 0.10L77.05 0.10L77.05 0.10Q74.00 1.90 69.97 1.90L69.97 1.90L69.97 1.90Q65.93 1.90 63.55 0.76L63.55 0.76L63.55 0.76Q61.18-0.38 59.85-2.28L59.85-2.28L59.85-2.28Q57.48-5.70 57.48-12.26L57.48-12.26L57.48-41.61L38.76 0L26.98 0L20.33-42.66L9.69 0ZM122.26-43.89L122.26-43.89L122.26-43.89Q123.69-46.74 123.69-49.40L123.69-49.40L123.69-49.40Q123.69-52.06 123.41-53.53L123.41-53.53L123.41-53.53Q123.12-55.01 122.45-56.15L122.45-56.15L122.45-56.15Q121.03-58.62 118.18-58.62L118.18-58.62L118.18-58.62Q114.66-58.62 111.81-56.05L111.81-56.05L111.81-56.05Q108.77-53.39 108.77-49.21L108.77-49.21L108.77-49.21Q108.77-46.55 110.63-44.51L110.63-44.51L110.63-44.51Q112.48-42.47 115.33-40.56L115.33-40.56L115.33-40.56Q118.18-38.66 121.41-36.77L121.41-36.77L121.41-36.77Q124.64-34.87 127.49-32.59L127.49-32.59L127.49-32.59Q134.04-27.36 134.04-20.33L134.04-20.33L134.04-20.33Q134.04-15.58 131.53-11.54L131.53-11.54L131.53-11.54Q129.01-7.50 124.83-4.56L124.83-4.56L124.83-4.56Q115.71 1.90 103.64 1.90L103.64 1.90L103.64 1.90Q93.86 1.90 88.82-1.28L88.82-1.28L88.82-1.28Q83.79-4.46 83.79-9.31L83.79-9.31L83.79-9.31Q83.79-17.96 90.53-20.14L90.53-20.14L90.53-20.14Q92.44-20.80 95.33-20.80L95.33-20.80L95.33-20.80Q98.23-20.80 101.55-19.57L101.55-19.57L101.55-19.57Q100.03-15.68 100.03-12.16L100.03-12.16L100.03-12.16Q100.03-4.56 105.45-4.56L105.45-4.56L105.45-4.56Q108.97-4.56 111.86-7.13L111.86-7.13L111.86-7.13Q114.76-9.69 114.76-12.59L114.76-12.59L114.76-12.59Q114.76-15.48 112.91-17.57L112.91-17.57L112.91-17.57Q111.05-19.66 108.30-21.33L108.30-21.33L108.30-21.33Q105.54-22.99 102.36-24.61L102.36-24.61L102.36-24.61Q99.18-26.22 96.42-28.50L96.42-28.50L96.42-28.50Q89.96-33.73 89.96-42.09L89.96-42.09L89.96-42.09Q89.96-47.50 92.63-51.73L92.63-51.73L92.63-51.73Q95.28-55.95 99.56-58.80L99.56-58.80L99.56-58.80Q108.11-64.60 118.61-64.60L118.61-64.60L118.61-64.60Q129.10-64.60 134.19-61.47L134.19-61.47L134.19-61.47Q139.27-58.33 139.27-53.01L139.27-53.01L139.27-53.01Q139.27-48.36 135.66-45.41L135.66-45.41L135.66-45.41Q132.52-42.94 128.72-42.94L128.72-42.94L128.72-42.94Q124.92-42.94 122.26-43.89Z" fill="url(#editing-outline-gradient)"></path></g></g><style>text {
  font-size: 64px;
  font-family: Arial Black;
  dominant-baseline: central;
  text-anchor: middle;
}</style></svg>