<svg viewBox="0 0 384 76.401" xmlns="http://www.w3.org/2000/svg"><g id="svgGroup" stroke-linecap="round" fill-rule="evenodd" font-size="9pt" stroke="#06b6d4" stroke-width="0.25mm" fill="#ffffff" style="stroke:#06b6d4;stroke-width:0.25mm;fill:#ffffff"><path d="M 31.2 60.8 A 23.354 23.354 0 0 0 34.269 60.61 Q 36.436 60.322 38.15 59.6 A 27.091 27.091 0 0 0 40.635 58.409 Q 41.897 57.719 42.933 56.95 A 16.762 16.762 0 0 0 43 56.9 A 356.28 356.28 0 0 0 44.776 55.56 Q 45.727 54.838 46.55 54.2 A 6.444 6.444 0 0 1 47.769 53.446 A 4.534 4.534 0 0 1 49.7 53 A 1.831 1.831 0 0 1 50.749 53.29 Q 51.465 53.773 51.642 55.065 A 6.925 6.925 0 0 1 51.7 56 A 15.984 15.984 0 0 1 51.644 57.292 Q 51.586 58.003 51.469 58.811 A 33.292 33.292 0 0 1 51.3 59.85 A 62.633 62.633 0 0 1 50.859 62.08 Q 50.572 63.413 50.2 64.9 Q 49.8 66.6 48.25 68.6 A 14.184 14.184 0 0 1 46.417 70.534 Q 45.486 71.356 44.334 72.13 A 24.195 24.195 0 0 1 44 72.35 Q 41.3 74.1 37.35 75.25 Q 33.4 76.4 28.3 76.4 Q 23.2 76.4 18.1 74.9 Q 13 73.4 9 69.8 A 22.859 22.859 0 0 1 4.975 64.959 A 31.467 31.467 0 0 1 2.5 60.1 A 30.328 30.328 0 0 1 0.836 54.402 Q 0.287 51.591 0.099 48.334 A 61.203 61.203 0 0 1 0 44.8 A 59.241 59.241 0 0 1 0.086 41.712 Q 0.169 40.126 0.332 38.353 A 106.814 106.814 0 0 1 0.45 37.15 A 51.423 51.423 0 0 1 1.672 30.201 A 59.013 59.013 0 0 1 2.2 28.2 Q 3.5 23.6 5.85 19.15 Q 8.2 14.7 11.9 11.2 A 26.857 26.857 0 0 1 17.919 6.946 A 32.982 32.982 0 0 1 20.95 5.55 A 28.276 28.276 0 0 1 26.763 3.946 Q 29.971 3.4 33.7 3.4 A 41.893 41.893 0 0 1 38.525 3.663 Q 40.931 3.943 43.009 4.519 A 23.976 23.976 0 0 1 43.95 4.8 A 24.276 24.276 0 0 1 47.699 6.343 A 17.943 17.943 0 0 1 51.15 8.65 A 15.138 15.138 0 0 1 54.989 13.588 A 14.72 14.72 0 0 1 55.35 14.4 Q 56.7 17.7 56.7 21.4 A 17.257 17.257 0 0 1 56.37 24.896 Q 55.587 28.676 52.95 30.75 A 12.469 12.469 0 0 1 48.905 32.818 Q 46.074 33.7 42.3 33.7 A 22.202 22.202 0 0 1 41.533 33.688 Q 40.339 33.646 39.804 33.466 A 1.176 1.176 0 0 1 39.55 33.35 A 1.015 1.015 0 0 1 39.174 32.9 Q 39.012 32.545 39.001 31.983 A 4.232 4.232 0 0 1 39 31.9 Q 38.9 28.5 38.8 26 Q 38.7 23.5 38.1 21.85 A 5.502 5.502 0 0 0 37.519 20.678 A 3.969 3.969 0 0 0 36.25 19.45 A 4.612 4.612 0 0 0 35.103 18.972 Q 34.552 18.819 33.892 18.752 A 10.864 10.864 0 0 0 32.8 18.7 A 12.647 12.647 0 0 0 30.225 18.949 A 9.166 9.166 0 0 0 27.35 20.05 Q 25.1 21.4 23.55 23.55 A 18.69 18.69 0 0 0 21.362 27.57 A 21.337 21.337 0 0 0 21.05 28.4 Q 20.1 31.1 19.55 33.9 Q 19 36.7 18.85 39.3 Q 18.735 41.291 18.708 42.871 A 54.626 54.626 0 0 0 18.7 43.8 A 43.819 43.819 0 0 0 18.915 48.314 Q 19.51 54.036 21.75 56.9 A 9.671 9.671 0 0 0 26.952 60.274 Q 28.598 60.73 30.584 60.791 A 20.218 20.218 0 0 0 31.2 60.8 Z M 64.351 50.959 A 15.4 15.4 0 0 0 58.9 63.1 Q 58.9 66.7 60.05 69.25 A 13.158 13.158 0 0 0 60.591 70.32 A 10.834 10.834 0 0 0 63.15 73.4 A 11.207 11.207 0 0 0 64.505 74.353 A 12.491 12.491 0 0 0 67.75 75.7 A 20.149 20.149 0 0 0 69.268 76.039 A 22.914 22.914 0 0 0 73.4 76.4 Q 79.6 76.4 83.45 73.8 Q 87.3 71.2 89.7 67.7 A 17.974 17.974 0 0 0 89.743 67.915 Q 90.076 69.518 90.66 70.839 A 10.107 10.107 0 0 0 92.9 74.1 Q 94.569 75.699 97.398 76.187 A 15.951 15.951 0 0 0 100.1 76.4 A 18.45 18.45 0 0 0 100.728 76.39 Q 103.72 76.288 105.85 75.2 Q 108.2 74 109.55 72.1 Q 110.9 70.2 111.5 67.9 A 19.866 19.866 0 0 0 111.673 67.184 A 17.455 17.455 0 0 0 112.1 63.4 A 1.263 1.263 0 0 0 112.089 63.232 Q 112.025 62.756 111.583 62.532 A 1.63 1.63 0 0 0 111.2 62.4 Q 110.3 62.2 109.15 61.8 A 4.345 4.345 0 0 1 108.095 61.26 A 5.29 5.29 0 0 1 107.1 60.35 A 2.574 2.574 0 0 1 106.86 60.019 Q 106.2 58.942 106.2 56.8 Q 106.2 55.7 106.45 52.9 Q 106.7 50.1 107.05 46.95 Q 107.4 43.8 107.65 40.95 Q 107.839 38.79 107.885 37.636 A 16.329 16.329 0 0 0 107.9 37 A 22.812 22.812 0 0 0 107.361 31.893 A 14.987 14.987 0 0 0 102.9 24 Q 99.301 20.689 92.543 19.762 A 42.355 42.355 0 0 0 86.8 19.4 A 52.876 52.876 0 0 0 86.071 19.405 Q 80.823 19.478 76.8 20.6 A 32.184 32.184 0 0 0 76.268 20.754 Q 72.322 21.928 69.65 23.85 A 16.235 16.235 0 0 0 68.47 24.783 A 13.266 13.266 0 0 0 65.35 28.7 Q 63.9 31.5 63.9 34.6 A 10.75 10.75 0 0 0 63.929 35.393 Q 64.439 42.3 74.1 42.3 A 15.587 15.587 0 0 0 74.602 42.293 Q 75.723 42.256 76.3 42.05 Q 77 41.8 77.2 40.9 Q 77.6 39.1 78.1 37.6 A 10.235 10.235 0 0 1 78.595 36.374 A 7.753 7.753 0 0 1 79.4 35.05 Q 80.2 34 81.5 33.4 A 5.419 5.419 0 0 1 82.312 33.105 Q 82.877 32.947 83.551 32.871 A 12.043 12.043 0 0 1 84.9 32.8 Q 88.7 32.8 89.9 34.7 Q 90.692 35.955 90.961 37.775 A 13.87 13.87 0 0 1 91.1 39.8 A 41.51 41.51 0 0 1 91.095 40.454 Q 91.09 40.763 91.08 41.038 A 19.774 19.774 0 0 1 91.05 41.65 A 45.784 45.784 0 0 0 91.05 41.652 Q 91 42.402 90.9 43.5 Q 75.1 43.9 67 49 A 21.166 21.166 0 0 0 64.351 50.959 Z M 271 1.4 L 274.9 1.4 A 21.259 21.259 0 0 1 277.004 1.498 Q 278.032 1.601 278.906 1.81 A 10.222 10.222 0 0 1 279.9 2.1 A 10.227 10.227 0 0 1 281.484 2.801 Q 282.362 3.288 283.014 3.916 A 6.31 6.31 0 0 1 283.1 4 Q 284.3 5.2 284.8 6.75 Q 285.3 8.3 285.3 10 L 285.1 12.5 Q 284.947 14.414 284.735 17.296 A 1560.002 1560.002 0 0 0 284.6 19.15 Q 284.342 22.717 284.011 27.132 A 4095.172 4095.172 0 0 1 283.9 28.6 A 2334.8 2334.8 0 0 0 283.2 38.143 A 2566.078 2566.078 0 0 0 283.1 39.55 Q 282.7 45.2 282.3 50.75 Q 281.9 56.3 281.5 60.95 A 973.439 973.439 0 0 0 281.221 64.255 Q 281.114 65.556 281.021 66.73 A 509.516 509.516 0 0 0 280.85 68.95 A 1003.556 1003.556 0 0 1 280.748 70.308 Q 280.578 72.541 280.5 73.4 Q 280.3 74.6 280 75 A 0.658 0.658 0 0 1 279.754 75.189 Q 279.317 75.4 278.3 75.4 L 274.7 75.4 A 22.393 22.393 0 0 1 271.961 75.239 A 19.046 19.046 0 0 1 270.75 75.05 Q 268.9 74.7 267.55 73.85 Q 266.2 73 265.45 71.55 A 6.089 6.089 0 0 1 264.941 70.133 Q 264.783 69.457 264.728 68.664 A 12.658 12.658 0 0 1 264.7 67.8 Q 262.9 71.6 259.25 74 A 14.034 14.034 0 0 1 254.558 75.941 Q 252.506 76.4 250.1 76.4 Q 246.2 76.4 242.65 75 Q 239.1 73.6 236.45 70.6 A 19.282 19.282 0 0 1 233.817 66.719 A 26.041 26.041 0 0 1 232.25 63 A 27.289 27.289 0 0 1 231.19 58.612 Q 230.83 56.368 230.735 53.8 A 51.046 51.046 0 0 1 230.7 51.9 Q 230.7 49 231.1 45.45 Q 231.5 41.9 232.5 38.3 Q 233.5 34.7 235.3 31.3 Q 237.1 27.9 239.85 25.25 A 20.471 20.471 0 0 1 245.045 21.637 A 24.002 24.002 0 0 1 246.45 21 A 20.108 20.108 0 0 1 250.922 19.752 Q 252.929 19.422 255.196 19.402 A 33.419 33.419 0 0 1 255.5 19.4 A 23.348 23.348 0 0 1 258.707 19.607 Q 260.372 19.838 261.749 20.328 A 11.074 11.074 0 0 1 263.55 21.15 A 7.335 7.335 0 0 1 266.633 24.653 A 11.398 11.398 0 0 1 267.4 27.2 Q 267.6 23.3 267.8 20.4 Q 268 17.5 268.15 15 Q 268.3 12.5 268.5 10 Q 268.7 7.5 268.9 4.3 A 20.042 20.042 0 0 1 268.948 3.538 Q 269.043 2.407 269.248 1.94 A 0.786 0.786 0 0 1 269.4 1.7 A 0.885 0.885 0 0 1 269.853 1.459 A 1.094 1.094 0 0 1 269.9 1.45 Q 270.178 1.404 270.885 1.4 A 23.878 23.878 0 0 1 271 1.4 Z M 201.7 76.4 Q 197.3 76.4 192.95 75.3 Q 188.6 74.2 185.15 71.5 A 19.028 19.028 0 0 1 180.916 66.813 A 23.951 23.951 0 0 1 179.5 64.3 Q 177.3 59.8 177.3 53 A 38.826 38.826 0 0 1 177.356 50.985 Q 177.45 49.188 177.7 47 Q 178.1 43.5 179.25 39.8 A 37.408 37.408 0 0 1 181.831 33.592 A 42.375 42.375 0 0 1 182.45 32.45 Q 184.5 28.8 187.8 25.9 A 24.435 24.435 0 0 1 192.866 22.5 A 30.414 30.414 0 0 1 195.8 21.2 A 25.694 25.694 0 0 1 200.775 19.879 Q 203.11 19.49 205.76 19.417 A 45.097 45.097 0 0 1 207 19.4 A 37.538 37.538 0 0 1 210.818 19.583 Q 212.713 19.777 214.334 20.177 A 19.15 19.15 0 0 1 215.8 20.6 Q 219.175 21.725 221.32 23.598 A 11.637 11.637 0 0 1 221.6 23.85 Q 223.8 25.9 224.8 28.6 A 16.318 16.318 0 0 1 225.784 33.631 A 18.772 18.772 0 0 1 225.8 34.4 A 19.13 19.13 0 0 1 225.495 37.907 Q 225.083 40.113 224.118 41.9 A 11.938 11.938 0 0 1 223.95 42.2 Q 222.1 45.4 219.15 47.55 Q 216.2 49.7 212.6 50.9 A 53.772 53.772 0 0 1 206.377 52.579 A 49.023 49.023 0 0 1 205.5 52.75 Q 202 53.4 199.05 53.55 Q 196.791 53.665 195.324 53.692 A 45.209 45.209 0 0 1 194.5 53.7 Q 194.5 55.6 195.05 57.45 A 9.993 9.993 0 0 0 196.125 59.877 A 9.002 9.002 0 0 0 196.7 60.7 A 7.945 7.945 0 0 0 198.643 62.454 A 9.83 9.83 0 0 0 199.6 63 Q 201.4 63.9 204 63.9 Q 205.692 63.9 206.897 63.54 A 5.235 5.235 0 0 0 208.05 63.05 A 10.702 10.702 0 0 0 209.326 62.18 A 7.946 7.946 0 0 0 210.4 61.15 A 54.987 54.987 0 0 0 211.14 60.27 Q 211.473 59.864 211.762 59.493 A 31.556 31.556 0 0 0 211.95 59.25 A 2.059 2.059 0 0 1 213.432 58.413 A 2.645 2.645 0 0 1 213.7 58.4 A 3.331 3.331 0 0 1 213.994 58.416 Q 214.487 58.46 215.365 58.633 A 32.064 32.064 0 0 1 215.45 58.65 Q 216.7 58.9 218 59.7 A 7.572 7.572 0 0 1 219.714 61.16 A 9.275 9.275 0 0 1 220.3 61.9 Q 221.243 63.221 221.297 65.254 A 9.387 9.387 0 0 1 221.3 65.5 Q 221.3 68.4 219.5 70.5 A 12.555 12.555 0 0 1 216.37 73.106 A 15.565 15.565 0 0 1 214.85 73.9 A 24.167 24.167 0 0 1 210.727 75.331 A 29.376 29.376 0 0 1 208.5 75.8 A 41.058 41.058 0 0 1 202.945 76.379 A 36.94 36.94 0 0 1 201.7 76.4 Z M 347.5 33.9 L 342.2 33.9 Q 341.9 37.7 341.55 41.4 Q 341.2 45.1 340.9 48.4 Q 340.6 51.7 340.45 54.3 Q 340.326 56.443 340.305 57.771 A 32.461 32.461 0 0 0 340.3 58.3 Q 340.3 60.9 340.9 61.75 Q 341.44 62.516 342.629 62.592 A 4.236 4.236 0 0 0 342.9 62.6 A 5.091 5.091 0 0 0 343.805 62.524 A 3.672 3.672 0 0 0 344.8 62.2 Q 345.6 61.8 346.3 61.3 A 218.777 218.777 0 0 0 346.923 60.853 Q 347.258 60.613 347.55 60.4 Q 348.1 60 348.8 60 A 1.285 1.285 0 0 1 349.516 60.226 Q 349.714 60.356 349.903 60.562 A 3.102 3.102 0 0 1 350.1 60.8 Q 350.654 61.539 350.697 64.068 A 25.76 25.76 0 0 1 350.7 64.5 A 16.292 16.292 0 0 1 350.321 68.12 Q 349.722 70.749 348.178 72.653 A 10.144 10.144 0 0 1 347.7 73.2 Q 344.813 76.28 337.941 76.396 A 32.22 32.22 0 0 1 337.4 76.4 Q 332.857 76.4 329.807 75.067 A 10.206 10.206 0 0 1 326.75 73.05 A 10.39 10.39 0 0 1 324.19 68.893 Q 323.62 67.234 323.415 65.2 A 23.977 23.977 0 0 1 323.3 62.8 Q 323.3 61.652 323.388 60.181 A 70.024 70.024 0 0 1 323.45 59.25 Q 323.584 57.416 323.838 54.582 A 570.854 570.854 0 0 1 323.9 53.9 A 2063.658 2063.658 0 0 1 324.146 51.214 Q 324.257 50.007 324.383 48.654 A 4282.598 4282.598 0 0 1 324.65 45.8 Q 325.097 41.029 325.594 33.984 A 964.377 964.377 0 0 0 325.6 33.9 L 320.3 33.9 A 2.802 2.802 0 0 1 319.991 33.885 Q 319.68 33.85 319.512 33.738 A 0.427 0.427 0 0 1 319.35 33.55 A 1.451 1.451 0 0 1 319.271 33.297 Q 319.211 33.029 319.202 32.642 A 6.037 6.037 0 0 1 319.2 32.5 L 319.5 27.4 Q 319.6 26.1 319.85 24.85 Q 320.1 23.6 320.85 22.6 A 4.556 4.556 0 0 1 321.97 21.554 A 6.287 6.287 0 0 1 323 21 Q 324.4 20.4 326.7 20.4 Q 327.181 19.163 327.757 17.594 A 253.045 253.045 0 0 0 328.3 16.1 A 256.675 256.675 0 0 1 330.072 11.324 A 237.825 237.825 0 0 1 330.1 11.25 A 48.459 48.459 0 0 1 330.768 9.593 Q 331.319 8.3 331.85 7.3 A 8.19 8.19 0 0 1 332.189 6.716 Q 332.842 5.7 333.4 5.7 L 336.3 5.7 Q 338.879 5.7 340.478 6.68 A 4.866 4.866 0 0 1 342.1 8.3 A 10.633 10.633 0 0 1 343.511 12.143 A 14.142 14.142 0 0 1 343.7 14.5 A 37.251 37.251 0 0 1 343.681 15.619 Q 343.643 16.895 343.524 18.676 A 166.896 166.896 0 0 1 343.4 20.4 L 353.9 20.4 A 2.661 2.661 0 0 1 354.504 20.463 Q 355.5 20.696 355.5 21.8 L 355.1 27.2 A 11.216 11.216 0 0 1 354.764 29.329 Q 354.425 30.606 353.775 31.597 A 6.613 6.613 0 0 1 353.45 32.05 A 3.84 3.84 0 0 1 352.014 33.141 Q 350.383 33.9 347.5 33.9 Z M 124.5 1.4 L 128.4 1.4 A 21.259 21.259 0 0 1 130.504 1.498 Q 131.532 1.601 132.406 1.81 A 10.222 10.222 0 0 1 133.4 2.1 A 10.227 10.227 0 0 1 134.984 2.801 Q 135.862 3.288 136.514 3.916 A 6.31 6.31 0 0 1 136.6 4 Q 137.8 5.2 138.3 6.75 Q 138.8 8.3 138.8 10 Q 138.8 12 138.55 15.75 Q 138.308 19.379 137.926 23.898 A 641.292 641.292 0 0 1 137.9 24.2 Q 137.5 28.9 137.1 34 Q 136.7 39.1 136.3 43.75 Q 135.9 48.4 135.65 52.1 Q 135.459 54.933 135.414 56.711 A 39.52 39.52 0 0 0 135.4 57.7 Q 135.4 60.3 136.35 61.4 A 6.615 6.615 0 0 0 137.21 62.238 A 4.809 4.809 0 0 0 138.4 62.95 A 10.953 10.953 0 0 0 139.43 63.316 A 7.957 7.957 0 0 0 140.45 63.55 Q 141.4 63.7 141.4 64.2 Q 141.4 66.4 140.9 68.55 Q 140.4 70.7 139.1 72.45 A 8.607 8.607 0 0 1 136.741 74.604 A 10.863 10.863 0 0 1 135.55 75.25 Q 133.3 76.3 129.8 76.3 A 18.365 18.365 0 0 1 126.589 76.039 Q 122.841 75.372 120.9 73 A 9.636 9.636 0 0 1 119.363 70.223 Q 118.369 67.542 118.224 63.508 A 39.435 39.435 0 0 1 118.2 62.1 A 24.829 24.829 0 0 1 118.219 61.16 Q 118.237 60.707 118.269 60.192 A 55.374 55.374 0 0 1 118.35 59.1 A 646.176 646.176 0 0 1 118.431 58.135 Q 118.563 56.588 118.75 54.45 Q 118.999 51.617 119.395 47.45 A 1674.129 1674.129 0 0 1 119.4 47.4 A 370.337 370.337 0 0 0 119.707 43.997 Q 119.838 42.474 119.974 40.774 A 739.582 739.582 0 0 0 120.25 37.2 A 1526.001 1526.001 0 0 0 120.602 32.405 Q 120.906 28.163 121.25 23.1 A 1277.718 1277.718 0 0 0 121.741 15.515 Q 122.063 10.319 122.4 4.3 A 20.042 20.042 0 0 1 122.448 3.538 Q 122.543 2.407 122.748 1.94 A 0.786 0.786 0 0 1 122.9 1.7 Q 123.2 1.4 124.5 1.4 Z M 154.7 1.4 L 158.6 1.4 A 21.259 21.259 0 0 1 160.704 1.498 Q 161.732 1.601 162.606 1.81 A 10.222 10.222 0 0 1 163.6 2.1 A 10.227 10.227 0 0 1 165.184 2.801 Q 166.062 3.288 166.714 3.916 A 6.31 6.31 0 0 1 166.8 4 Q 168 5.2 168.5 6.75 Q 169 8.3 169 10 Q 169 12 168.75 15.75 Q 168.508 19.379 168.126 23.898 A 641.292 641.292 0 0 1 168.1 24.2 Q 167.7 28.9 167.3 34 Q 166.9 39.1 166.5 43.75 Q 166.1 48.4 165.85 52.1 Q 165.659 54.933 165.614 56.711 A 39.52 39.52 0 0 0 165.6 57.7 Q 165.6 60.3 166.55 61.4 A 6.615 6.615 0 0 0 167.41 62.238 A 4.809 4.809 0 0 0 168.6 62.95 A 10.953 10.953 0 0 0 169.63 63.316 A 7.957 7.957 0 0 0 170.65 63.55 Q 171.6 63.7 171.6 64.2 Q 171.6 66.4 171.1 68.55 Q 170.6 70.7 169.3 72.45 A 8.607 8.607 0 0 1 166.941 74.604 A 10.863 10.863 0 0 1 165.75 75.25 Q 163.5 76.3 160 76.3 A 18.365 18.365 0 0 1 156.789 76.039 Q 153.041 75.372 151.1 73 A 9.636 9.636 0 0 1 149.563 70.223 Q 148.569 67.542 148.424 63.508 A 39.435 39.435 0 0 1 148.4 62.1 A 24.829 24.829 0 0 1 148.419 61.16 Q 148.437 60.707 148.469 60.192 A 55.374 55.374 0 0 1 148.55 59.1 A 646.176 646.176 0 0 1 148.631 58.135 Q 148.763 56.588 148.95 54.45 Q 149.199 51.617 149.595 47.45 A 1674.129 1674.129 0 0 1 149.6 47.4 A 370.337 370.337 0 0 0 149.907 43.997 Q 150.038 42.474 150.174 40.774 A 739.582 739.582 0 0 0 150.45 37.2 A 1526.001 1526.001 0 0 0 150.802 32.405 Q 151.106 28.163 151.45 23.1 A 1277.718 1277.718 0 0 0 151.941 15.515 Q 152.263 10.319 152.6 4.3 A 20.042 20.042 0 0 1 152.648 3.538 Q 152.743 2.407 152.948 1.94 A 0.786 0.786 0 0 1 153.1 1.7 Q 153.4 1.4 154.7 1.4 Z M 306.5 75.4 L 302.9 75.4 Q 300.722 75.4 299.111 75.079 A 10.453 10.453 0 0 1 297.85 74.75 Q 295.909 74.103 294.76 72.911 A 5.778 5.778 0 0 1 294.75 72.9 A 6.397 6.397 0 0 1 293.282 70.405 A 7.713 7.713 0 0 1 293.15 69.95 A 13.55 13.55 0 0 1 292.82 68.126 Q 292.7 67.086 292.7 65.9 Q 292.7 64.752 292.788 62.871 A 157.342 157.342 0 0 1 292.85 61.65 Q 292.965 59.545 293.226 56.208 A 528.679 528.679 0 0 1 293.4 54.05 Q 293.78 49.442 294.296 42.486 A 2597.406 2597.406 0 0 0 294.35 41.75 Q 294.9 34.3 295.7 23.3 A 20.042 20.042 0 0 1 295.748 22.538 Q 295.843 21.407 296.048 20.94 A 0.786 0.786 0 0 1 296.2 20.7 A 0.641 0.641 0 0 1 296.413 20.569 Q 296.825 20.4 297.8 20.4 L 301.7 20.4 Q 304.8 20.4 306.75 21 A 8.602 8.602 0 0 1 308.291 21.633 A 6.195 6.195 0 0 1 309.85 22.8 A 6.501 6.501 0 0 1 311.421 25.594 A 7.625 7.625 0 0 1 311.45 25.7 A 13.221 13.221 0 0 1 311.814 27.739 A 17.317 17.317 0 0 1 311.9 29.5 Q 311.9 30.649 311.783 32.676 A 150.909 150.909 0 0 1 311.7 34 Q 311.5 37 311.15 42.15 Q 310.8 47.3 310.2 54.95 A 2786.172 2786.172 0 0 1 309.708 61.131 Q 309.485 63.89 309.233 66.958 A 5461.13 5461.13 0 0 1 308.7 73.4 A 6.234 6.234 0 0 1 308.634 73.935 Q 308.503 74.697 308.2 75 A 0.98 0.98 0 0 1 307.885 75.202 Q 307.415 75.4 306.5 75.4 Z M 375 50.6 L 371.4 50.6 A 17.242 17.242 0 0 1 369.788 50.529 Q 368.979 50.453 368.293 50.295 A 7.83 7.83 0 0 1 367.3 50 A 5.772 5.772 0 0 1 365.817 49.194 A 4.922 4.922 0 0 1 364.8 48.15 Q 363.9 46.9 363.55 45.05 A 18.956 18.956 0 0 1 363.299 43.195 Q 363.2 42.075 363.2 40.8 Q 363.2 39.9 363.25 38.85 A 36.27 36.27 0 0 1 363.281 38.291 Q 363.334 37.459 363.435 36.358 A 104.401 104.401 0 0 1 363.45 36.2 Q 363.596 34.639 363.743 32.316 A 229.05 229.05 0 0 0 363.75 32.2 Q 363.884 30.053 364.138 26.826 A 638.334 638.334 0 0 1 364.2 26.05 A 1477.748 1477.748 0 0 0 364.439 23.02 Q 364.65 20.313 364.9 17 A 1199.1 1199.1 0 0 0 365.214 12.73 Q 365.488 8.925 365.8 4.3 A 20.042 20.042 0 0 1 365.848 3.538 Q 365.943 2.407 366.148 1.94 A 0.786 0.786 0 0 1 366.3 1.7 Q 366.6 1.4 367.9 1.4 L 373.8 1.4 Q 378.685 1.4 381.085 3.096 A 5.761 5.761 0 0 1 381.65 3.55 A 7.711 7.711 0 0 1 383.172 5.421 A 6.324 6.324 0 0 1 384 8.6 A 24.611 24.611 0 0 1 383.966 9.838 Q 383.896 11.224 383.681 13.083 A 80.964 80.964 0 0 1 383.65 13.35 Q 383.3 16.3 382.7 19.9 Q 382.1 23.5 381.35 27.45 Q 380.6 31.4 379.85 35.25 Q 379.1 39.1 378.4 42.6 L 377.2 48.6 Q 377.043 49.542 376.732 49.991 A 1.166 1.166 0 0 1 376.55 50.2 A 1.268 1.268 0 0 1 376.164 50.428 Q 375.792 50.573 375.221 50.596 A 5.512 5.512 0 0 1 375 50.6 Z M 251.708 36.392 A 10.803 10.803 0 0 0 251.25 37.15 A 17.496 17.496 0 0 0 249.664 41.269 Q 249.151 43.275 248.943 45.66 A 39.584 39.584 0 0 0 248.8 49.1 Q 248.8 51.7 249.15 54.2 A 18.075 18.075 0 0 0 249.739 56.924 A 14.646 14.646 0 0 0 250.4 58.7 A 8.937 8.937 0 0 0 251.613 60.691 A 7.571 7.571 0 0 0 252.85 61.9 Q 254.4 63.1 256.8 63.1 A 7.929 7.929 0 0 0 262.614 60.588 A 12.409 12.409 0 0 0 264 58.9 A 13.277 13.277 0 0 0 265.651 55.446 Q 266.729 52.131 266.877 47.277 A 51.959 51.959 0 0 0 266.9 45.7 A 38.302 38.302 0 0 0 266.605 40.887 A 35.304 35.304 0 0 0 266.6 40.85 A 14.536 14.536 0 0 0 266.122 38.541 A 11.349 11.349 0 0 0 265.4 36.7 Q 264.5 34.9 262.9 33.8 A 5.96 5.96 0 0 0 260.897 32.93 Q 260.092 32.736 259.152 32.706 A 10.935 10.935 0 0 0 258.8 32.7 Q 254.155 32.7 251.708 36.392 Z M 371.345 57.758 A 13.543 13.543 0 0 0 369.2 57.6 A 16.342 16.342 0 0 0 368.472 57.616 Q 367.404 57.664 366.479 57.854 A 8.713 8.713 0 0 0 364.5 58.5 A 9.208 9.208 0 0 0 363.574 59.004 A 7.358 7.358 0 0 0 361.5 60.9 A 9.592 9.592 0 0 0 361.361 61.095 A 10.031 10.031 0 0 0 359.9 64.3 Q 359.4 66.2 359.4 68.2 A 12.699 12.699 0 0 0 359.654 70.807 A 8.963 8.963 0 0 0 361 74.05 Q 362.6 76.4 367.1 76.4 Q 368.759 76.4 370.089 76.071 A 7.659 7.659 0 0 0 372.15 75.25 A 10.363 10.363 0 0 0 373.333 74.442 A 8.089 8.089 0 0 0 375.15 72.45 Q 376.2 70.8 376.6 68.9 Q 377 67 377 65.4 A 13.892 13.892 0 0 0 376.967 64.423 Q 376.881 63.213 376.578 62.203 A 6.757 6.757 0 0 0 375.2 59.65 Q 373.899 58.169 371.345 57.758 Z M 295.8 8.6 Q 295.8 4.6 298.7 2.3 A 10.024 10.024 0 0 1 302.346 0.506 Q 303.797 0.111 305.516 0.024 A 19.614 19.614 0 0 1 306.5 0 A 16.714 16.714 0 0 1 308.732 0.139 Q 311.348 0.492 312.75 1.75 A 5.78 5.78 0 0 1 314.67 5.693 A 8.025 8.025 0 0 1 314.7 6.4 A 8.117 8.117 0 0 1 313.878 10.073 A 8.236 8.236 0 0 1 311.95 12.55 A 8.788 8.788 0 0 1 308.812 14.309 Q 307.502 14.741 305.911 14.903 A 19.86 19.86 0 0 1 303.9 15 A 15.043 15.043 0 0 1 300.944 14.736 Q 296.331 13.807 295.855 9.61 A 8.959 8.959 0 0 1 295.8 8.6 Z M 203.6 32.7 A 6.439 6.439 0 0 0 201.625 32.992 A 5.457 5.457 0 0 0 199.85 33.95 A 10.279 10.279 0 0 0 197.626 36.466 A 12.071 12.071 0 0 0 197.25 37.1 A 16.227 16.227 0 0 0 195.874 40.452 A 18.705 18.705 0 0 0 195.65 41.3 A 50.905 50.905 0 0 0 195.012 44.368 A 43.227 43.227 0 0 0 194.8 45.7 A 32.672 32.672 0 0 0 198.785 45.407 Q 200.831 45.121 202.538 44.562 A 15.412 15.412 0 0 0 204.85 43.6 A 8.867 8.867 0 0 0 206.791 42.268 A 5.705 5.705 0 0 0 208.7 37.9 Q 208.7 35.9 207.45 34.3 Q 206.241 32.753 203.77 32.702 A 8.237 8.237 0 0 0 203.6 32.7 Z M 90 51.7 Q 87.4 51.7 84.9 52.1 Q 82.4 52.5 80.45 53.35 A 9.624 9.624 0 0 0 78.638 54.373 A 7.729 7.729 0 0 0 77.3 55.6 A 4.964 4.964 0 0 0 76.111 58.627 A 6.396 6.396 0 0 0 76.1 59 Q 76.1 60.47 76.692 61.368 A 2.754 2.754 0 0 0 77.55 62.2 Q 79 63.1 80.7 63.1 A 7.734 7.734 0 0 0 83.35 62.62 A 9.139 9.139 0 0 0 83.9 62.4 A 7.747 7.747 0 0 0 86.269 60.768 A 9.257 9.257 0 0 0 86.75 60.25 A 12.153 12.153 0 0 0 88.078 58.356 A 15.947 15.947 0 0 0 88.9 56.7 A 12.817 12.817 0 0 0 89.623 54.41 Q 89.865 53.313 89.972 52.061 A 21.896 21.896 0 0 0 90 51.7 Z" vector-effect="non-scaling-stroke"/></g></svg>
