<svg xmlns="http://www.w3.org/2000/svg" height="100px" width="500px" viewBox="151.4625 14 197.075 122" style="background: rgb(201, 250, 255);" preserveAspectRatio="xMidYMid"><defs><filter id="editing-hole" x="-100%" y="-100%" width="300%" height="300%"><feFlood flood-color="#cccccc" result="black"></feFlood><feMorphology operator="dilate" radius="2" in="SourceGraphic" result="erode"></feMorphology><feGaussianBlur in="erode" stdDeviation="4" result="blur"></feGaussianBlur><feOffset in="blur" dx="2" dy="2" result="offset"></feOffset><feComposite operator="atop" in="offset" in2="black" result="merge"></feComposite><feComposite operator="in" in="merge" in2="SourceGraphic" result="inner-shadow"></feComposite></filter></defs><g filter="url(#editing-hole)"><g transform="translate(185.7838418483734, 98.35999870300293)"><path d="M47.17 1.28L47.17 1.28L47.17 1.28Q39.42 1.28 39.42-4.74L39.42-4.74L39.42-4.74Q39.42-7.36 40.54-12.45L40.54-12.45L40.54-12.45Q41.66-17.54 42.05-19.58L42.05-19.58L42.05-19.58Q42.94-24.26 42.94-25.73L42.94-25.73L42.94-25.73Q42.94-28.99 40.51-28.99L40.51-28.99L40.51-28.99Q38.91-28.99 37.38-26.78L37.38-26.78L37.38-26.78Q35.84-24.58 35.14-20.16L35.14-20.16L31.17 0L18.69 1.28L22.14-16.13L22.14-16.13Q22.72-19.01 23.23-22.27L23.23-22.27L23.23-22.27Q23.74-25.54 23.74-26.05L23.74-26.05L23.74-26.05Q23.74-28.99 21.57-28.99L21.57-28.99L21.57-28.99Q20.10-28.99 18.50-26.82L18.50-26.82L18.50-26.82Q16.90-24.64 16-20.16L16-20.16L12.10 0L-0.51 1.28L6.21-32.64L16.64-33.92L15.55-27.46L15.55-27.46Q17.22-30.91 20.29-32.42L20.29-32.42L20.29-32.42Q23.36-33.92 28.16-33.92L28.16-33.92L28.16-33.92Q30.91-33.92 32.70-32.58L32.70-32.58L32.70-32.58Q34.50-31.23 35.07-29.06L35.07-29.06L35.07-29.06Q36.16-31.30 38.94-32.61L38.94-32.61L38.94-32.61Q41.73-33.92 45.15-33.92L45.15-33.92L45.15-33.92Q48.58-33.92 50.27-33.18L50.27-33.18L50.27-33.18Q51.97-32.45 52.99-31.23L52.99-31.23L52.99-31.23Q54.72-28.99 54.72-24.90L54.72-24.90L54.72-24.90Q54.72-20.86 52.99-12.48L52.99-12.48L52.99-12.48Q52.10-8.38 52.10-6.88L52.10-6.88L52.10-6.88Q52.10-5.38 52.96-4.48L52.96-4.48L52.96-4.48Q53.82-3.58 55.10-3.46L55.10-3.46L55.10-3.46Q54.46-1.28 52.26 0L52.26 0L52.26 0Q50.05 1.28 47.17 1.28ZM89.86-4.38L89.86-4.38L89.86-4.38Q87.17-1.66 83.49-0.19L83.49-0.19L83.49-0.19Q79.81 1.28 76.16 1.28L76.16 1.28L76.16 1.28Q72.51 1.28 71.23 0.64L71.23 0.64L69.25 11.52L56.26 12.80L65.09-32.64L75.52-33.73L74.69-29.31L74.69-29.31Q77.38-33.86 82.94-33.86L82.94-33.86L82.94-33.86Q89.22-33.86 92.54-29.82L92.54-29.82L92.54-29.82Q95.49-26.18 95.49-20.61L95.49-20.61L95.49-20.61Q95.49-15.04 94.02-11.07L94.02-11.07L94.02-11.07Q92.54-7.10 89.86-4.38ZM75.39-22.34L72-3.58L72-3.58Q73.34-2.43 75.01-2.43L75.01-2.43L75.01-2.43Q76.67-2.43 77.63-3.07L77.63-3.07L77.63-3.07Q78.59-3.71 79.30-4.99L79.30-4.99L79.30-4.99Q81.22-8.45 82.75-18.94L82.75-18.94L82.75-18.94Q83.20-22.02 83.20-25.02L83.20-25.02L83.20-25.02Q83.20-28.03 82.53-28.99L82.53-28.99L82.53-28.99Q81.86-29.95 80.58-29.95L80.58-29.95L80.58-29.95Q76.67-29.95 75.39-22.34L75.39-22.34ZM118.46-22.46L118.46-22.46L118.46-22.46Q119.36-24.83 119.36-26.88L119.36-26.88L119.36-26.88Q119.36-30.66 116.29-30.66L116.29-30.66L116.29-30.66Q114.69-30.66 113.38-29.22L113.38-29.22L113.38-29.22Q112.06-27.78 112.06-25.98L112.06-25.98L112.06-25.98Q112.06-24.70 113.09-23.68L113.09-23.68L113.09-23.68Q114.56-22.27 118.34-19.97L118.34-19.97L118.34-19.97Q122.11-17.66 123.55-15.78L123.55-15.78L123.55-15.78Q124.99-13.89 124.99-11.30L124.99-11.30L124.99-11.30Q124.99-8.70 123.74-6.34L123.74-6.34L123.74-6.34Q122.50-3.97 120.26-2.30L120.26-2.30L120.26-2.30Q115.46 1.28 107.78 1.28L107.78 1.28L107.78 1.28Q103.62 1.28 100.42-0.90L100.42-0.90L100.42-0.90Q97.22-3.01 97.22-5.50L97.22-5.50L97.22-5.50Q97.22-8 99.04-9.47L99.04-9.47L99.04-9.47Q100.86-10.94 103.55-10.94L103.55-10.94L103.55-10.94Q106.24-10.94 107.90-9.92L107.90-9.92L107.90-9.92Q107.07-7.81 107.07-6.40L107.07-6.40L107.07-6.40Q107.07-2.18 110.66-2.18L110.66-2.18L110.66-2.18Q112.19-2.18 113.22-3.14L113.22-3.14L113.22-3.14Q114.24-4.10 114.24-5.76L114.24-5.76L114.24-5.76Q114.24-9.02 108.74-12.48L108.74-12.48L108.74-12.48Q104.26-15.42 103.23-16.58L103.23-16.58L103.23-16.58Q101.50-18.62 101.50-21.18L101.50-21.18L101.50-21.18Q101.50-23.74 102.72-26.18L102.72-26.18L102.72-26.18Q103.94-28.61 106.18-30.34L106.18-30.34L106.18-30.34Q110.85-33.92 118.98-33.92L118.98-33.92L118.98-33.92Q123.14-33.92 125.60-32.26L125.60-32.26L125.60-32.26Q128.06-30.59 128.06-27.78L128.06-27.78L128.06-27.78Q128.06-24.96 126.37-23.36L126.37-23.36L126.37-23.36Q124.67-21.76 121.60-21.76L121.60-21.76L121.60-21.76Q119.49-21.76 118.46-22.46Z" fill="#ffe2e2"></path></g></g><style>text {
  font-size: 64px;
  font-family: Arial Black;
  dominant-baseline: central;
  text-anchor: middle;
}</style></svg>
